<?xml version="1.0" standalone="no"?>
<!DOCTYPE svg PUBLIC "-//W3C//DTD SVG 20010904//EN"
 "http://www.w3.org/TR/2001/REC-SVG-20010904/DTD/svg10.dtd">
<svg version="1.0" xmlns="http://www.w3.org/2000/svg"
 width="1024.000000pt" height="1024.000000pt" viewBox="0 0 1024.000000 1024.000000"
 preserveAspectRatio="xMidYMid meet">
<metadata>
Created by potrace 1.14, written by Peter Selinger 2001-2017
</metadata>
<g transform="translate(0.000000,1024.000000) scale(0.100000,-0.100000)"
fill="#000000" stroke="none">
<path d="M10147 7923 c-2 -2 -24 -6 -87 -17 -76 -13 -99 -17 -310 -56 -58 -11
-121 -22 -140 -25 -19 -4 -53 -10 -75 -15 -22 -5 -58 -11 -80 -14 -22 -4 -47
-9 -55 -11 -8 -3 -31 -7 -50 -10 -100 -14 -201 -36 -196 -43 2 -4 7 -88 11
-187 4 -99 8 -207 10 -240 2 -33 6 -132 10 -220 7 -187 12 -295 20 -460 3 -66
8 -174 10 -240 2 -66 7 -172 10 -235 7 -148 14 -302 20 -465 15 -357 25 -558
29 -562 2 -2 25 1 52 6 65 13 266 51 301 57 16 2 75 13 133 24 113 21 132 24
228 41 l62 11 1 57 c1 31 3 65 4 76 1 11 6 83 10 160 3 77 8 172 10 210 2 39
7 120 10 180 6 122 12 235 20 370 3 50 7 128 10 175 7 130 15 287 20 370 2 41
7 129 10 195 3 66 8 149 10 185 2 36 7 121 10 190 4 69 8 152 10 185 19 317
19 314 -4 312 -12 -1 -23 -2 -24 -4z"/>
<path d="M8640 7364 c-36 -7 -78 -15 -95 -18 -16 -3 -77 -14 -135 -25 -58 -11
-132 -25 -165 -30 -50 -8 -149 -27 -305 -56 -14 -3 -38 -7 -55 -10 -16 -3 -53
-10 -81 -16 l-51 -10 -83 -292 c-46 -161 -91 -321 -101 -357 -10 -36 -54 -193
-99 -350 -72 -252 -170 -620 -184 -690 -3 -14 -7 -36 -10 -50 -3 -14 -9 -41
-12 -60 -3 -19 -12 -60 -19 -90 -7 -30 -19 -88 -25 -129 -13 -76 -23 -79 -33
-11 -18 125 -96 466 -152 660 -20 69 -38 136 -41 149 -3 14 -7 27 -9 31 -2 3
-33 107 -69 230 -36 124 -75 255 -86 293 -11 37 -30 100 -41 140 -12 39 -30
99 -40 132 -10 33 -27 93 -39 133 -12 40 -24 71 -28 68 -4 -2 -26 -7 -48 -10
-22 -4 -51 -9 -64 -11 -14 -3 -38 -7 -55 -10 -16 -3 -50 -9 -75 -15 -38 -8
-122 -23 -244 -44 -16 -3 -52 -10 -80 -15 -28 -6 -64 -13 -81 -16 -59 -10
-320 -57 -335 -60 -8 -2 -18 -4 -22 -4 -6 -1 -14 -30 -22 -81 -3 -14 -10 -59
-16 -100 -17 -107 -19 -122 -24 -150 -3 -14 -8 -43 -11 -65 -9 -65 -38 -248
-55 -345 -5 -30 -14 -84 -20 -120 -5 -36 -12 -81 -15 -100 -5 -30 -25 -157
-41 -252 -2 -16 -6 -40 -9 -55 -7 -47 -55 -345 -61 -388 -4 -22 -8 -49 -10
-60 -2 -10 -6 -37 -9 -60 -3 -22 -10 -65 -15 -95 -11 -59 -85 -519 -94 -585
-4 -22 -11 -65 -16 -95 -5 -30 -12 -75 -15 -100 -3 -25 -8 -52 -10 -60 -2 -8
-6 -33 -10 -55 -10 -72 -17 -106 -22 -102 -3 4 -225 663 -739 2197 -75 223
-139 408 -143 412 -6 7 -91 -5 -186 -25 -11 -3 -40 -8 -65 -12 -56 -9 -78 -13
-110 -20 -47 -10 -75 -15 -120 -21 -25 -3 -48 -8 -51 -10 -3 -2 -21 -6 -40 -9
-56 -9 -258 -45 -339 -61 -41 -7 -86 -15 -99 -17 -19 -3 -27 -15 -42 -63 -22
-70 -518 -1732 -523 -1754 -2 -9 -31 -106 -64 -215 -33 -110 -70 -235 -82
-277 -13 -43 -26 -78 -31 -78 -4 0 -10 18 -14 40 -20 119 -98 271 -184 358
-57 58 -172 126 -231 136 -14 3 -26 5 -28 5 -2 1 23 23 55 49 196 163 323 374
361 596 16 95 6 319 -18 380 -5 14 -8 26 -6 26 8 0 -44 133 -66 169 -132 221
-341 321 -683 326 -148 3 -202 -2 -380 -30 -85 -14 -103 -17 -165 -30 -14 -2
-38 -7 -55 -10 -16 -2 -86 -16 -155 -30 -69 -14 -138 -28 -155 -31 -50 -8
-414 -84 -500 -104 -44 -10 -124 -29 -177 -41 l-98 -23 -1 -290 c0 -160 -2
-475 -4 -701 -2 -225 -6 -875 -10 -1444 l-7 -1034 34 7 c31 7 378 69 443 80
26 4 80 14 240 41 17 3 53 10 80 15 28 5 64 11 80 14 17 2 71 11 120 20 50 8
108 18 130 22 67 10 286 63 350 85 288 100 504 230 693 417 51 51 91 85 88 75
-3 -10 -28 -94 -56 -188 -28 -93 -52 -175 -54 -181 -3 -8 29 -5 97 7 56 10
120 21 142 25 22 3 43 8 47 10 4 3 22 6 40 8 18 2 58 8 88 14 61 13 98 19 150
28 19 3 53 9 75 14 22 5 56 11 75 15 19 3 58 10 85 15 28 5 63 12 79 14 16 3
30 7 32 9 5 5 119 397 153 526 l17 65 54 12 c30 7 75 15 100 19 25 3 52 8 60
10 8 2 31 7 50 10 19 3 42 8 50 10 8 2 31 6 50 9 19 3 73 13 120 21 47 9 112
20 144 26 33 5 62 12 65 13 3 2 29 7 56 10 28 4 57 9 65 11 8 2 29 7 45 9 17
3 54 10 84 16 29 5 57 10 62 10 4 0 26 -60 49 -132 23 -73 60 -187 81 -253 21
-67 39 -127 39 -134 0 -10 10 -12 38 -7 43 7 56 9 252 46 140 26 537 98 575
105 29 5 131 24 353 65 59 11 123 22 142 26 19 3 40 7 45 8 6 2 45 8 87 16 43
7 82 18 87 24 5 6 12 41 15 78 4 37 9 75 11 86 2 10 6 43 10 73 3 30 8 65 10
79 2 14 7 50 10 80 3 30 10 82 15 115 5 33 11 85 15 115 3 30 8 66 10 80 5 26
13 85 20 154 4 36 11 88 20 146 2 14 7 50 10 80 3 30 8 66 10 80 4 24 13 104
21 180 1 19 6 59 9 88 3 28 8 78 11 110 3 31 7 68 9 82 2 14 7 70 11 125 17
253 15 237 25 190 4 -22 10 -58 14 -80 3 -22 8 -47 10 -55 2 -8 7 -28 9 -45
13 -73 72 -341 110 -500 17 -69 78 -294 96 -355 30 -99 91 -311 100 -345 4
-16 31 -111 60 -210 29 -99 55 -190 57 -202 3 -13 10 -23 17 -23 14 0 166 27
451 80 121 23 245 45 275 50 78 14 102 19 106 23 4 4 285 1122 300 1193 2 12
17 77 33 145 26 106 60 261 77 349 26 131 44 223 49 265 9 64 24 92 26 50 1
-16 3 -39 4 -50 1 -11 5 -51 9 -90 4 -38 9 -88 11 -110 3 -22 7 -60 10 -85 3
-25 10 -81 15 -125 6 -44 13 -96 15 -115 13 -102 26 -209 31 -240 13 -92 15
-108 48 -365 3 -21 10 -75 16 -120 6 -44 13 -98 16 -120 3 -22 7 -51 9 -65 2
-14 7 -47 10 -75 3 -27 7 -63 10 -80 3 -16 7 -46 9 -65 22 -167 22 -165 32
-164 11 2 131 23 164 29 14 2 63 11 110 19 68 12 242 44 435 80 11 2 75 14
143 26 101 19 122 26 118 39 -7 26 -16 127 -10 113 10 -22 118 -87 181 -108
73 -25 188 -30 271 -14 31 7 93 29 137 51 185 90 305 275 308 472 3 315 -248
530 -565 484 -156 -24 -327 -142 -398 -275 l-28 -53 -7 38 c-13 63 -23 121
-31 188 -3 22 -9 63 -14 90 -5 28 -12 68 -15 90 -7 50 -48 307 -60 380 -3 17
-10 61 -15 99 -6 38 -12 78 -15 90 -2 12 -7 38 -10 59 -9 68 -16 111 -25 167
-5 30 -12 73 -15 95 -3 22 -8 54 -11 70 -7 37 -10 56 -18 120 -4 28 -9 61 -12
75 -8 32 -10 49 -24 143 -6 43 -13 88 -15 100 -2 12 -13 81 -24 152 -12 72
-23 141 -25 155 -3 14 -10 61 -16 105 -7 44 -13 87 -15 95 -2 8 -8 51 -15 95
-7 44 -14 88 -16 98 -2 10 -8 54 -15 98 -13 90 -6 86 -119 63z m-4835 -2096
c25 -115 91 -343 170 -598 79 -254 89 -289 83 -296 -3 -2 -41 -11 -84 -19 -43
-8 -90 -17 -104 -20 -14 -3 -45 -8 -70 -11 -25 -3 -47 -7 -50 -9 -9 -6 -243
-46 -246 -42 -3 3 11 57 86 327 48 172 117 434 125 471 3 13 31 143 50 229 2
8 4 23 4 33 2 41 19 11 36 -65z m-2316 -28 c65 -37 86 -83 86 -190 0 -72 -5
-94 -28 -141 -23 -48 -79 -109 -150 -166 -53 -41 -182 -87 -321 -112 l-106
-18 0 31 c-2 173 2 551 5 554 6 6 190 49 245 57 25 4 47 9 50 12 3 3 43 3 90
1 67 -3 95 -9 129 -28z m0 -1305 c116 -63 147 -217 78 -376 -23 -52 -106 -139
-170 -177 -76 -46 -177 -78 -300 -97 -58 -8 -112 -15 -121 -15 -14 0 -16 31
-16 314 0 291 1 315 18 320 9 2 53 12 97 20 44 9 91 18 105 21 14 3 40 7 59 9
18 3 35 7 37 9 3 2 40 3 83 2 64 -2 87 -7 130 -30z"/>
</g>
</svg>
